<mxfile host="app.diagrams.net" modified="2021-10-14T03:36:11.515Z" agent="5.0 (Macintosh; Intel Mac OS X 10_15_7) AppleWebKit/537.36 (KHTML, like Gecko) Chrome/94.0.4606.71 Safari/537.36" etag="dNTrNyhwMW4xItk8yQCA" version="14.4.4" type="github">
  <diagram id="sD8TbmqJIbrZG9PxraUR" name="Page-1">
    <mxGraphModel dx="946" dy="566" grid="1" gridSize="10" guides="1" tooltips="1" connect="1" arrows="1" fold="1" page="1" pageScale="1" pageWidth="850" pageHeight="1100" math="0" shadow="0">
      <root>
        <mxCell id="0" />
        <mxCell id="1" parent="0" />
        <mxCell id="N9wcQtzkn711c9m50hLB-1" value="" style="verticalLabelPosition=bottom;verticalAlign=top;html=1;shape=mxgraph.basic.rounded_frame;dx=10;" vertex="1" parent="1">
          <mxGeometry x="420" y="270" width="50" height="50" as="geometry" />
        </mxCell>
        <mxCell id="N9wcQtzkn711c9m50hLB-5" style="edgeStyle=orthogonalEdgeStyle;rounded=0;orthogonalLoop=1;jettySize=auto;html=1;exitX=1;exitY=0.5;exitDx=0;exitDy=0;exitPerimeter=0;entryX=0.5;entryY=1;entryDx=0;entryDy=0;entryPerimeter=0;" edge="1" parent="1" source="N9wcQtzkn711c9m50hLB-2" target="N9wcQtzkn711c9m50hLB-3">
          <mxGeometry relative="1" as="geometry" />
        </mxCell>
        <mxCell id="N9wcQtzkn711c9m50hLB-2" value="" style="verticalLabelPosition=bottom;verticalAlign=top;html=1;shape=mxgraph.basic.rounded_frame;dx=10;" vertex="1" parent="1">
          <mxGeometry x="480" y="350" width="50" height="50" as="geometry" />
        </mxCell>
        <mxCell id="N9wcQtzkn711c9m50hLB-6" style="edgeStyle=orthogonalEdgeStyle;rounded=0;orthogonalLoop=1;jettySize=auto;html=1;exitX=0;exitY=0.5;exitDx=0;exitDy=0;exitPerimeter=0;entryX=1;entryY=0.5;entryDx=0;entryDy=0;entryPerimeter=0;" edge="1" parent="1" source="N9wcQtzkn711c9m50hLB-3" target="N9wcQtzkn711c9m50hLB-1">
          <mxGeometry relative="1" as="geometry" />
        </mxCell>
        <mxCell id="N9wcQtzkn711c9m50hLB-23" style="edgeStyle=orthogonalEdgeStyle;rounded=0;orthogonalLoop=1;jettySize=auto;html=1;exitX=0.5;exitY=0;exitDx=0;exitDy=0;exitPerimeter=0;entryX=0.613;entryY=-0.012;entryDx=0;entryDy=0;entryPerimeter=0;" edge="1" parent="1" source="N9wcQtzkn711c9m50hLB-3" target="N9wcQtzkn711c9m50hLB-14">
          <mxGeometry relative="1" as="geometry" />
        </mxCell>
        <mxCell id="N9wcQtzkn711c9m50hLB-3" value="" style="verticalLabelPosition=bottom;verticalAlign=top;html=1;shape=mxgraph.basic.rounded_frame;dx=10;" vertex="1" parent="1">
          <mxGeometry x="560" y="270" width="50" height="50" as="geometry" />
        </mxCell>
        <mxCell id="N9wcQtzkn711c9m50hLB-4" value="" style="endArrow=classic;html=1;exitX=0.5;exitY=1;exitDx=0;exitDy=0;exitPerimeter=0;entryX=0;entryY=0.5;entryDx=0;entryDy=0;entryPerimeter=0;" edge="1" parent="1" source="N9wcQtzkn711c9m50hLB-1" target="N9wcQtzkn711c9m50hLB-2">
          <mxGeometry width="50" height="50" relative="1" as="geometry">
            <mxPoint x="400" y="320" as="sourcePoint" />
            <mxPoint x="450" y="270" as="targetPoint" />
          </mxGeometry>
        </mxCell>
        <mxCell id="N9wcQtzkn711c9m50hLB-17" style="edgeStyle=orthogonalEdgeStyle;rounded=0;orthogonalLoop=1;jettySize=auto;html=1;exitX=1;exitY=0.5;exitDx=0;exitDy=0;entryX=0;entryY=0.5;entryDx=0;entryDy=0;entryPerimeter=0;" edge="1" parent="1" source="N9wcQtzkn711c9m50hLB-7" target="N9wcQtzkn711c9m50hLB-1">
          <mxGeometry relative="1" as="geometry" />
        </mxCell>
        <mxCell id="N9wcQtzkn711c9m50hLB-19" style="edgeStyle=orthogonalEdgeStyle;rounded=0;orthogonalLoop=1;jettySize=auto;html=1;exitX=0.5;exitY=0;exitDx=0;exitDy=0;entryX=0;entryY=0.5;entryDx=0;entryDy=0;" edge="1" parent="1" source="N9wcQtzkn711c9m50hLB-7" target="N9wcQtzkn711c9m50hLB-14">
          <mxGeometry relative="1" as="geometry" />
        </mxCell>
        <mxCell id="N9wcQtzkn711c9m50hLB-7" value="S" style="ellipse;whiteSpace=wrap;html=1;aspect=fixed;" vertex="1" parent="1">
          <mxGeometry x="200" y="230" width="80" height="80" as="geometry" />
        </mxCell>
        <mxCell id="N9wcQtzkn711c9m50hLB-8" value="B" style="text;html=1;align=center;verticalAlign=middle;resizable=0;points=[];autosize=1;" vertex="1" parent="1">
          <mxGeometry x="435" y="285" width="20" height="20" as="geometry" />
        </mxCell>
        <mxCell id="N9wcQtzkn711c9m50hLB-9" value="BC" style="text;html=1;align=center;verticalAlign=middle;resizable=0;points=[];autosize=1;" vertex="1" parent="1">
          <mxGeometry x="490" y="366" width="30" height="20" as="geometry" />
        </mxCell>
        <mxCell id="N9wcQtzkn711c9m50hLB-10" value="C" style="text;html=1;align=center;verticalAlign=middle;resizable=0;points=[];autosize=1;" vertex="1" parent="1">
          <mxGeometry x="575" y="285" width="20" height="20" as="geometry" />
        </mxCell>
        <mxCell id="N9wcQtzkn711c9m50hLB-11" value="0" style="text;html=1;align=center;verticalAlign=middle;resizable=0;points=[];autosize=1;" vertex="1" parent="1">
          <mxGeometry x="500" y="270" width="20" height="20" as="geometry" />
        </mxCell>
        <mxCell id="N9wcQtzkn711c9m50hLB-12" value="1" style="text;html=1;align=center;verticalAlign=middle;resizable=0;points=[];autosize=1;" vertex="1" parent="1">
          <mxGeometry x="550" y="350" width="20" height="20" as="geometry" />
        </mxCell>
        <mxCell id="N9wcQtzkn711c9m50hLB-13" value="0&lt;br&gt;" style="text;html=1;align=center;verticalAlign=middle;resizable=0;points=[];autosize=1;" vertex="1" parent="1">
          <mxGeometry x="460" y="330" width="20" height="20" as="geometry" />
        </mxCell>
        <mxCell id="N9wcQtzkn711c9m50hLB-21" style="edgeStyle=orthogonalEdgeStyle;rounded=0;orthogonalLoop=1;jettySize=auto;html=1;exitX=0;exitY=1;exitDx=0;exitDy=0;entryX=0.5;entryY=0;entryDx=0;entryDy=0;entryPerimeter=0;" edge="1" parent="1" source="N9wcQtzkn711c9m50hLB-14" target="N9wcQtzkn711c9m50hLB-1">
          <mxGeometry relative="1" as="geometry" />
        </mxCell>
        <mxCell id="N9wcQtzkn711c9m50hLB-27" style="edgeStyle=orthogonalEdgeStyle;rounded=0;orthogonalLoop=1;jettySize=auto;html=1;exitX=0.5;exitY=0;exitDx=0;exitDy=0;entryX=0.263;entryY=-0.012;entryDx=0;entryDy=0;entryPerimeter=0;" edge="1" parent="1" source="N9wcQtzkn711c9m50hLB-14" target="N9wcQtzkn711c9m50hLB-14">
          <mxGeometry relative="1" as="geometry">
            <mxPoint x="310" y="80" as="targetPoint" />
            <Array as="points">
              <mxPoint x="440" y="80" />
              <mxPoint x="400" y="80" />
              <mxPoint x="400" y="139" />
            </Array>
          </mxGeometry>
        </mxCell>
        <mxCell id="N9wcQtzkn711c9m50hLB-14" value="A" style="ellipse;whiteSpace=wrap;html=1;aspect=fixed;" vertex="1" parent="1">
          <mxGeometry x="400" y="140" width="80" height="80" as="geometry" />
        </mxCell>
        <mxCell id="N9wcQtzkn711c9m50hLB-15" value="" style="endArrow=classic;html=1;entryX=1;entryY=1;entryDx=0;entryDy=0;exitX=0.84;exitY=0.04;exitDx=0;exitDy=0;exitPerimeter=0;" edge="1" parent="1" source="N9wcQtzkn711c9m50hLB-1" target="N9wcQtzkn711c9m50hLB-14">
          <mxGeometry width="50" height="50" relative="1" as="geometry">
            <mxPoint x="400" y="310" as="sourcePoint" />
            <mxPoint x="450" y="260" as="targetPoint" />
          </mxGeometry>
        </mxCell>
        <mxCell id="N9wcQtzkn711c9m50hLB-16" value="1" style="text;html=1;align=center;verticalAlign=middle;resizable=0;points=[];autosize=1;" vertex="1" parent="1">
          <mxGeometry x="465" y="232" width="20" height="20" as="geometry" />
        </mxCell>
        <mxCell id="N9wcQtzkn711c9m50hLB-18" value="0" style="text;html=1;align=center;verticalAlign=middle;resizable=0;points=[];autosize=1;" vertex="1" parent="1">
          <mxGeometry x="344" y="292" width="20" height="20" as="geometry" />
        </mxCell>
        <mxCell id="N9wcQtzkn711c9m50hLB-20" value="1" style="text;html=1;align=center;verticalAlign=middle;resizable=0;points=[];autosize=1;" vertex="1" parent="1">
          <mxGeometry x="270" y="150" width="20" height="20" as="geometry" />
        </mxCell>
        <mxCell id="N9wcQtzkn711c9m50hLB-22" value="0" style="text;html=1;align=center;verticalAlign=middle;resizable=0;points=[];autosize=1;" vertex="1" parent="1">
          <mxGeometry x="390" y="230" width="20" height="20" as="geometry" />
        </mxCell>
        <mxCell id="N9wcQtzkn711c9m50hLB-24" value="1" style="text;html=1;align=center;verticalAlign=middle;resizable=0;points=[];autosize=1;" vertex="1" parent="1">
          <mxGeometry x="597" y="166" width="20" height="20" as="geometry" />
        </mxCell>
        <mxCell id="N9wcQtzkn711c9m50hLB-28" value="1" style="text;html=1;align=center;verticalAlign=middle;resizable=0;points=[];autosize=1;" vertex="1" parent="1">
          <mxGeometry x="410" y="60" width="20" height="20" as="geometry" />
        </mxCell>
      </root>
    </mxGraphModel>
  </diagram>
</mxfile>
